<?xml version="1.0" standalone="no"?>
<!DOCTYPE svg PUBLIC "-//W3C//DTD SVG 20010904//EN"
 "http://www.w3.org/TR/2001/REC-SVG-20010904/DTD/svg10.dtd">
<svg version="1.0" xmlns="http://www.w3.org/2000/svg"
 width="800.000000pt" height="250.000000pt" viewBox="0 0 800.000000 250.000000"
 preserveAspectRatio="xMidYMid meet">

<g transform="translate(0.000000,250.000000) scale(0.100000,-0.100000)"
fill="#000000" stroke="none">
<path d="M1065 2084 c-9 -22 -30 -73 -47 -114 -17 -41 -36 -81 -42 -89 -8 -11
-52 -13 -221 -10 l-210 4 -3 -297 c-1 -164 2 -298 6 -298 5 0 16 8 25 18 13
15 17 39 17 114 l0 95 90 43 c50 23 93 40 96 37 3 -3 -3 -12 -15 -19 -18 -11
-21 -23 -22 -78 -1 -46 -3 -56 -8 -35 -3 17 -8 30 -11 29 -47 -6 -50 -11 -50
-77 l0 -65 -51 -39 c-29 -21 -60 -42 -69 -47 -16 -9 -17 -26 -12 -196 5 -174
4 -189 -17 -234 -33 -75 -29 -98 21 -126 23 -13 59 -27 80 -30 36 -7 38 -6 38
20 0 15 7 34 16 41 15 12 16 8 13 -39 -3 -39 -1 -51 9 -47 6 3 18 7 25 10 8 3
82 -40 166 -97 84 -57 162 -109 174 -117 21 -12 32 -7 155 78 73 51 156 104
184 118 50 25 52 25 66 7 13 -17 14 -13 9 39 -4 42 -2 57 6 54 7 -2 14 -17 17
-33 5 -26 8 -29 45 -29 50 1 102 28 117 61 9 19 8 35 -3 71 -12 38 -23 52 -59
74 -25 15 -48 28 -52 28 -3 1 9 -25 28 -56 19 -31 34 -60 34 -65 0 -15 -115
-9 -136 8 -18 15 -18 15 6 9 14 -3 41 -8 60 -11 l35 -6 -25 18 c-37 26 -42 38
-20 46 23 8 27 28 7 28 -8 0 -19 10 -26 23 -20 36 -96 88 -169 115 -96 35
-257 42 -362 13 -41 -11 -76 -18 -78 -16 -8 8 112 245 124 245 7 0 21 14 31
30 9 17 20 30 23 30 3 0 20 -21 39 -46 27 -36 39 -44 56 -40 16 4 31 -4 56
-30 51 -53 161 -123 281 -179 109 -51 134 -70 76 -58 l-31 6 27 -36 c16 -21
31 -37 33 -37 3 0 18 9 34 21 30 21 39 49 17 49 -40 1 -42 11 -43 242 -1 123
-2 323 -3 446 l-2 224 -213 -8 -213 -7 -53 124 c-29 68 -55 126 -56 128 -2 2
-11 -14 -20 -35z m113 -304 c49 -118 133 -314 187 -435 53 -121 99 -226 102
-233 3 -8 -17 0 -44 17 -44 27 -53 39 -76 99 -32 81 -33 86 -8 72 12 -6 21
-24 24 -43 l4 -32 1 32 c2 24 -6 42 -28 65 l-29 33 -1 -40 c0 -30 -3 -36 -10
-25 -5 8 -10 25 -10 37 0 12 -5 34 -12 50 -12 27 -12 26 -18 -27 l-5 -55 -79
185 c-43 102 -82 191 -86 199 -11 20 -50 -71 -50 -116 0 -26 -4 -34 -14 -30
-14 5 -116 -84 -116 -102 0 -5 -22 -23 -49 -40 l-50 -30 35 82 c36 82 222 521
231 545 3 7 7 12 8 10 1 -2 43 -100 93 -218z m-395 61 c-2 -7 24 -11 83 -11
78 0 85 -2 78 -17 -4 -10 -9 -37 -12 -60 -4 -43 -22 -61 -22 -23 0 15 -7 20
-28 20 -31 0 -65 -29 -81 -70 -7 -17 -10 -20 -10 -7 -1 11 -9 17 -26 17 -22 0
-25 -4 -25 -39 0 -30 -6 -44 -22 -55 -12 -8 -25 -13 -30 -10 -4 3 -28 -9 -53
-26 l-45 -31 0 150 0 149 48 5 c26 3 65 10 87 15 46 11 61 9 58 -7z m797 -97
l0 -85 -35 -15 c-52 -21 -55 -19 -55 46 l0 60 -120 0 -120 0 -20 40 -20 40
185 0 185 0 0 -86z m-143 -121 c-2 -16 -4 -5 -4 22 0 28 2 40 4 28 2 -13 2
-35 0 -50z m-87 -17 c0 -25 -4 -48 -10 -51 -6 -4 -10 8 -10 29 0 19 -4 38 -10
41 -17 10 -11 25 10 25 17 0 20 -7 20 -44z m34 9 c-4 -8 -8 -15 -10 -15 -2 0
-4 7 -4 15 0 8 4 15 10 15 5 0 7 -7 4 -15z m196 -65 c0 -48 -1 -50 -37 -66
-21 -9 -55 -18 -75 -21 l-38 -6 0 46 0 45 68 25 c37 14 70 26 75 26 4 1 7 -21
7 -49z m-2 -356 c-2 -1 -20 3 -41 9 l-37 12 0 82 c0 66 -3 84 -17 91 -13 8 -5
14 38 30 l54 20 3 -120 c1 -67 1 -122 0 -124z m-638 154 c-20 -42 -30 -79 -30
-110 0 -65 -18 -61 -22 5 -3 51 -3 52 -17 25 -8 -15 -18 -25 -22 -22 -5 2 -20
-19 -35 -48 -15 -29 -30 -54 -35 -56 -5 -2 -9 -18 -10 -35 -1 -35 -16 -91 -18
-67 -1 8 -23 -37 -50 -100 -27 -63 -48 -117 -45 -119 2 -2 19 6 38 17 l35 21
-12 -27 c-18 -42 -37 -51 -99 -52 -32 0 -58 2 -58 4 0 2 40 96 89 208 49 111
100 230 114 263 24 58 28 62 108 107 46 27 87 48 91 48 4 0 -6 -28 -22 -62z
m-220 32 c0 -5 -7 -10 -15 -10 -8 0 -15 5 -15 10 0 6 7 10 15 10 8 0 15 -4 15
-10z m740 6 c0 -2 -7 -7 -16 -10 -8 -3 -12 -2 -9 4 6 10 25 14 25 6z m-772
-90 c-13 -9 -18 -27 -18 -63 0 -54 -35 -148 -64 -172 -15 -12 -16 -4 -16 93
l0 107 53 24 c58 28 70 31 45 11z m892 -171 c0 -25 -3 -45 -6 -45 -3 0 -19 15
-35 33 l-30 32 28 12 c42 18 43 17 43 -32z m-483 -131 c-3 -3 -12 -4 -19 -1
-8 3 -5 6 6 6 11 1 17 -2 13 -5z m-67 -94 c0 -5 -2 -10 -4 -10 -3 0 -8 5 -11
10 -3 6 -1 10 4 10 6 0 11 -4 11 -10z m150 -15 c0 -8 -4 -15 -9 -15 -13 0 -22
16 -14 24 11 11 23 6 23 -9z m-140 -171 c19 -13 38 -24 42 -24 4 0 58 33 120
73 62 41 118 77 125 80 7 4 15 -5 21 -23 11 -29 10 -31 -76 -92 -82 -60 -87
-65 -85 -98 1 -19 -1 -26 -4 -15 -9 36 -21 38 -56 11 -41 -31 -41 -31 -77 -6
-27 19 -29 19 -33 3 -4 -14 -5 -13 -6 4 -1 15 -28 40 -98 89 -54 37 -100 69
-102 70 -2 2 2 17 9 33 l12 30 86 -56 c48 -31 103 -66 122 -79z m68 98 c2 -19
-1 -32 -8 -32 -6 0 -9 4 -5 9 3 5 -4 12 -15 16 -32 10 -23 49 10 43 9 -2 16
-16 18 -36z m22 -246 c0 -2 -11 -11 -24 -19 -23 -15 -24 -15 -19 3 4 16 43 30
43 16z"/>
<path d="M875 1339 c-4 -6 -5 -12 -2 -15 2 -3 7 2 10 11 7 17 1 20 -8 4z"/>
<path d="M3237 1580 c-101 -26 -197 -105 -240 -198 -18 -39 -22 -65 -22 -157
0 -98 3 -116 26 -166 34 -72 96 -134 168 -168 48 -22 70 -26 146 -26 103 0
161 15 204 51 l30 25 -25 67 c-14 37 -27 72 -29 79 -3 9 -22 3 -62 -18 -51
-27 -66 -30 -122 -27 -58 4 -66 7 -97 40 -84 92 -63 263 39 311 63 30 149 16
191 -32 11 -11 22 -21 26 -21 12 0 83 158 77 173 -3 8 -30 27 -61 42 -61 30
-181 42 -249 25z m219 -59 c24 -11 44 -23 44 -26 0 -3 -9 -23 -20 -44 l-19
-39 -38 20 c-30 15 -53 19 -110 16 -62 -3 -76 -7 -109 -34 -55 -44 -78 -96
-82 -182 -4 -63 -1 -80 23 -127 45 -93 138 -131 245 -100 81 23 81 23 96 -18
l13 -38 -47 -22 c-71 -32 -189 -30 -262 4 -106 50 -169 145 -178 269 -11 160
80 294 228 335 67 18 155 13 216 -14z"/>
<path d="M6370 1581 c-104 -34 -160 -106 -160 -206 0 -97 50 -163 173 -227 55
-29 79 -47 83 -64 9 -34 -2 -44 -47 -44 -46 0 -72 11 -111 48 -15 14 -29 24
-31 21 -2 -2 -13 -20 -25 -39 l-20 -35 -106 3 -106 3 0 55 0 54 70 0 70 0 0
85 0 85 -70 0 -70 0 0 45 0 45 85 0 85 0 0 85 0 85 -180 0 -180 0 0 -77 -1
-78 -19 37 c-46 87 -127 118 -307 118 l-123 0 -1 -302 -1 -303 -18 75 c-10 41
-40 177 -67 302 l-48 228 -37 0 -38 0 -96 -192 -97 -193 -96 193 -96 192 -37
0 c-26 0 -38 -5 -42 -17 -7 -25 -106 -504 -106 -514 0 -5 -43 -9 -95 -9 l-95
0 0 55 0 55 70 0 70 0 0 85 0 85 -70 0 -70 0 0 45 0 45 90 0 90 0 0 85 0 85
-440 0 -440 0 0 -85 0 -85 80 0 80 0 2 -272 3 -273 92 -3 93 -3 2 273 3 273
78 3 77 3 0 -276 0 -275 264 0 263 0 23 118 c33 169 31 166 72 91 20 -35 52
-97 72 -136 32 -65 39 -73 65 -73 27 0 33 9 97 134 38 74 72 132 75 128 6 -6
59 -240 59 -257 0 -3 81 -5 180 -5 l180 0 0 120 0 120 33 0 c83 0 167 52 207
129 l19 36 1 -202 0 -203 195 0 195 0 0 25 c0 30 0 30 53 3 51 -26 172 -36
235 -19 50 14 113 67 136 115 9 19 16 59 16 91 0 96 -40 151 -163 222 -113 66
-137 113 -56 113 30 0 47 -8 77 -34 l38 -35 37 62 c32 54 37 58 37 35 l0 -28
80 0 80 0 2 -272 3 -273 93 -3 92 -3 0 276 0 275 80 0 80 0 0 85 0 85 -255 0
-255 0 0 -25 c0 -14 -2 -25 -4 -25 -2 0 -25 12 -51 26 -50 29 -156 41 -205 25z
m129 -42 c28 -6 60 -18 72 -28 21 -16 21 -19 5 -48 -20 -39 -33 -48 -50 -33
-43 35 -145 30 -166 -10 -28 -52 6 -99 120 -164 87 -50 128 -95 137 -150 18
-114 -67 -205 -194 -206 -56 0 -138 23 -165 47 -15 14 -15 17 5 51 11 20 21
38 23 40 1 2 19 -7 39 -20 27 -15 55 -22 93 -23 47 0 57 4 78 28 48 56 20 105
-94 165 -91 48 -126 84 -142 144 -26 93 23 179 115 203 63 17 64 17 124 4z
m-2319 -44 l0 -45 -80 0 -80 0 0 -270 0 -270 -50 0 -50 0 0 270 0 270 -80 0
-80 0 0 45 0 45 210 0 210 0 0 -45z m360 0 l0 -45 -90 0 -90 0 0 -85 0 -85 75
0 75 0 0 -45 0 -45 -75 0 -75 0 0 -95 0 -95 105 0 105 0 0 -45 0 -45 -155 0
-155 0 0 308 c0 170 3 312 7 315 3 4 66 7 140 7 l133 0 0 -45z m407 -336 c14
-33 28 -59 32 -58 3 0 55 100 114 221 59 121 110 219 112 216 5 -4 135 -601
135 -618 0 -5 -21 -10 -48 -10 l-47 0 -40 186 c-21 103 -41 180 -43 173 -6
-25 -177 -359 -183 -359 -3 0 -46 81 -95 179 -49 99 -91 180 -94 180 -3 1 -21
-79 -41 -176 l-34 -178 -48 -3 c-36 -2 -47 0 -47 12 0 21 120 598 127 609 6 9
155 -270 200 -374z m749 350 c37 -18 54 -35 72 -69 40 -79 22 -191 -39 -247
-33 -30 -102 -53 -160 -53 l-49 0 0 -115 0 -115 -50 0 -50 0 0 308 c0 170 3
312 8 316 4 5 55 6 113 4 86 -4 115 -9 155 -29z m454 -14 l0 -45 -90 0 -90 0
0 -85 0 -85 76 0 75 0 -3 -42 -3 -43 -72 -3 -73 -3 0 -94 0 -95 105 0 105 0 0
-45 0 -45 -155 0 -155 0 0 308 c0 170 3 312 7 315 3 4 66 7 140 7 l133 0 0
-45z m948 -2 l3 -43 -80 0 -81 0 0 -270 0 -270 -50 0 -50 0 0 270 0 270 -80 0
-80 0 0 45 0 45 208 -2 207 -3 3 -42z"/>
<path d="M5520 1341 l0 -111 45 0 c82 0 125 39 125 115 0 24 -9 45 -28 66 -24
27 -37 33 -85 37 l-57 4 0 -111z m115 36 c21 -31 19 -54 -10 -82 -43 -44 -55
-34 -55 44 0 68 0 68 25 63 14 -2 32 -14 40 -25z"/>
<path d="M1760 1221 l0 -361 90 0 89 0 3 117 c2 70 7 118 13 120 6 2 39 -51
74 -117 l62 -120 105 0 c57 0 104 4 104 9 0 5 -35 69 -78 143 l-79 135 38 40
c42 46 59 94 59 171 l0 53 78 -3 77 -3 3 -272 2 -273 90 0 90 0 2 273 3 272
83 3 82 3 0 84 0 85 -255 0 -255 0 0 -82 c-1 -82 -1 -83 -17 -53 -25 49 -62
82 -117 106 -43 20 -73 24 -198 27 l-148 4 0 -361z m333 286 c37 -17 63 -37
76 -59 55 -89 27 -214 -60 -267 l-27 -17 47 -79 c26 -44 59 -101 74 -127 l28
-48 -58 0 -58 0 -60 115 -60 115 -47 0 -48 0 0 -115 0 -115 -50 0 -50 0 0 308
c0 170 3 312 8 316 4 5 57 6 118 4 92 -4 121 -10 167 -31z m607 -12 l0 -45
-80 0 -80 0 0 -270 0 -270 -50 0 -50 0 0 270 0 270 -80 0 -80 0 0 45 0 45 210
0 210 0 0 -45z"/>
<path d="M1900 1334 l0 -117 60 6 c102 11 140 44 140 123 0 72 -43 104 -140
104 l-60 0 0 -116z m141 50 c25 -22 24 -55 -2 -88 -16 -20 -29 -26 -60 -26
l-39 0 0 63 c0 35 3 67 8 71 11 12 72 -1 93 -20z"/>
<path d="M2760 1220 l0 -360 90 0 90 0 0 360 0 360 -90 0 -90 0 0 -360z m140
5 l0 -315 -50 0 -50 0 0 315 0 315 50 0 50 0 0 -315z"/>
<path d="M1056 1185 c-10 -25 -38 -65 -63 -89 l-44 -44 39 13 c41 15 82 23
119 24 l22 1 -21 63 c-11 34 -23 65 -27 69 -3 4 -14 -13 -25 -37z"/>
<path d="M1186 1168 c16 -51 60 -88 106 -88 16 0 -46 70 -80 90 l-33 20 7 -22z"/>
<path d="M1140 1125 c0 -8 7 -15 16 -15 14 0 14 3 4 15 -7 8 -14 15 -16 15 -2
0 -4 -7 -4 -15z"/>
</g>
</svg>
