<?xml version="1.0" standalone="no"?>
<!DOCTYPE svg PUBLIC "-//W3C//DTD SVG 20010904//EN"
 "http://www.w3.org/TR/2001/REC-SVG-20010904/DTD/svg10.dtd">
<svg version="1.0" xmlns="http://www.w3.org/2000/svg"
 width="512.000000pt" height="512.000000pt" viewBox="0 0 512.000000 512.000000"
 preserveAspectRatio="xMidYMid meet">

<g transform="translate(0.000000,512.000000) scale(0.100000,-0.100000)"
fill={props.fill} stroke="none">
<path d="M2526 4832 c-28 -70 -203 -488 -231 -552 l-24 -55 -561 -1 c-424 -1
-564 -4 -573 -13 -13 -13 -18 -759 -9 -1288 l5 -282 21 11 c12 6 38 26 59 46
l37 36 0 252 0 253 168 84 c167 84 285 138 332 152 23 7 23 5 -10 -30 -19 -20
-50 -45 -67 -56 l-33 -21 -1 -151 c-1 -84 -5 -181 -9 -217 -6 -61 -7 -57 -8
46 -2 96 -5 114 -23 135 -16 18 -22 21 -29 10 -5 -8 -27 -14 -54 -15 -44 -1
-46 -2 -46 -31 -2 -159 -14 -313 -27 -333 -8 -13 -64 -60 -126 -106 -62 -46
-120 -97 -130 -114 -15 -27 -22 -30 -46 -26 -23 5 -32 2 -40 -14 -16 -30 -15
-209 2 -215 9 -3 12 -89 12 -388 l0 -384 -58 -141 c-84 -207 -78 -243 51 -305
37 -18 88 -48 114 -66 39 -28 51 -32 67 -24 37 20 78 13 116 -20 l35 -31 0 95
c0 94 0 96 29 116 45 32 55 28 47 -21 -3 -24 -9 -78 -12 -120 -4 -43 -11 -78
-15 -78 -5 0 -9 -5 -9 -11 0 -17 57 -3 87 21 14 11 34 20 44 20 38 0 271 -151
786 -508 86 -60 141 -92 159 -92 14 0 43 13 63 28 44 35 566 395 636 439 66
42 243 130 277 138 25 6 27 4 35 -35 4 -22 13 -41 18 -40 12 0 12 148 0 228
-8 58 1 66 43 36 20 -13 22 -24 22 -94 l0 -79 36 24 c46 31 57 31 111 -1 45
-26 45 -26 66 -6 12 10 49 31 82 46 148 67 179 129 140 281 -18 68 -72 191
-81 182 -3 -3 -28 8 -56 24 -56 33 -164 89 -173 89 -3 0 15 -31 40 -70 36 -56
145 -261 145 -272 0 -2 -68 -1 -151 0 -134 3 -157 7 -203 28 -32 14 -57 34
-64 49 -13 27 1 45 16 19 5 -9 11 -15 13 -13 3 2 32 -6 69 -20 17 -7 103 -25
165 -35 6 -1 16 -6 24 -10 10 -6 12 -5 7 2 -9 16 7 15 22 0 7 -7 12 -8 12 -2
0 5 -26 25 -57 44 -32 18 -68 39 -80 47 -23 14 -46 50 -57 93 -6 23 -6 24 6 5
9 -14 24 -20 50 -20 30 0 34 2 25 14 -10 12 -9 14 6 8 11 -4 17 -1 17 9 0 8
-4 13 -9 10 -4 -3 -6 5 -4 17 4 18 0 23 -22 25 -17 1 -24 -2 -19 -10 4 -6 3
-8 -3 -5 -5 3 -18 25 -29 49 -53 121 -259 264 -484 338 -168 55 -302 74 -515
74 -218 0 -334 -18 -532 -85 -62 -21 -113 -36 -113 -34 0 11 58 134 183 388
140 286 142 289 170 284 21 -3 32 2 41 17 7 12 32 51 55 88 l43 68 108 -135
107 -134 34 29 c19 16 39 29 44 30 6 0 51 -41 100 -91 218 -221 468 -376 910
-564 114 -49 120 -52 126 -85 4 -19 6 -36 5 -38 -2 -1 -23 9 -47 22 -51 28
-109 43 -109 27 0 -5 26 -43 58 -83 32 -40 66 -85 76 -100 l18 -27 25 30 c14
16 43 39 63 49 49 25 82 67 78 99 -2 20 -13 28 -58 43 -102 34 -94 -9 -90 520
2 255 2 508 2 563 -1 55 -4 371 -7 703 -5 459 -9 602 -18 603 -7 1 -263 0
-569 -1 l-557 -2 -15 34 c-8 18 -49 112 -91 208 -42 96 -95 222 -117 280 -63
163 -63 164 -92 92z m144 -557 c147 -356 423 -1001 615 -1435 40 -91 117 -264
170 -385 54 -121 104 -235 111 -253 l14 -32 -57 32 c-32 17 -91 54 -132 82
l-74 51 -73 180 c-40 99 -73 188 -74 198 0 16 2 16 38 -2 58 -29 71 -50 82
-132 18 -131 30 -146 24 -29 -5 103 -18 170 -33 170 -4 0 -32 25 -62 55 l-54
55 -6 -27 c-4 -16 -7 -56 -8 -90 -1 -46 -5 -63 -15 -63 -14 0 -26 49 -26 113
0 37 -46 167 -76 217 l-15 25 7 -25 c10 -37 12 -330 2 -330 -5 0 -11 8 -15 18
-3 9 -24 55 -45 102 -22 47 -62 139 -90 205 -27 66 -85 203 -128 305 -43 102
-104 249 -135 328 -32 79 -59 141 -61 139 -2 -2 -31 -70 -64 -151 -52 -129
-60 -156 -59 -207 2 -69 -16 -103 -38 -73 -12 16 -14 16 -25 2 -7 -9 -59 -52
-115 -96 -83 -66 -107 -92 -133 -141 -30 -56 -42 -66 -155 -141 -68 -44 -125
-80 -128 -80 -2 0 72 177 165 393 318 737 274 632 472 1110 74 179 76 182 85
170 4 -4 54 -120 111 -258z m-916 -111 c27 -10 18 -33 -24 -59 -22 -14 -40
-32 -40 -40 0 -9 8 -6 25 10 l24 25 235 0 236 0 -9 -23 c-5 -12 -21 -47 -35
-77 -22 -44 -26 -68 -26 -136 0 -58 -4 -85 -14 -93 -20 -17 -36 15 -36 73 l0
46 -79 0 -79 0 -56 -70 c-31 -38 -52 -70 -46 -70 5 0 10 6 10 13 0 9 2 9 8 0
5 -8 43 -13 102 -16 l95 -3 -117 -2 c-128 -2 -120 3 -133 -74 -10 -65 -35 -42
-35 33 0 38 -1 39 -37 39 -84 0 -83 1 -83 -120 l0 -108 -39 -31 c-24 -19 -45
-29 -55 -25 -9 3 -16 1 -16 -5 0 -6 -5 -11 -12 -11 -6 0 -4 8 6 19 16 18 16
19 -15 16 -17 -2 -43 -12 -58 -24 -49 -38 -191 -141 -196 -141 -3 0 -5 178 -5
395 l0 395 108 0 c89 0 112 3 140 20 23 14 51 20 95 20 35 1 73 7 87 15 27 16
50 18 74 9z m2106 -292 l0 -228 -101 -43 c-56 -23 -103 -40 -106 -38 -2 3 -5
77 -6 166 l-2 161 -321 0 c-237 0 -323 -3 -326 -12 -2 -6 -14 13 -27 43 -32
73 -61 140 -73 162 -8 16 18 17 477 17 l485 0 0 -228z m-380 -184 c1 -35 3
-96 7 -135 4 -51 2 -73 -6 -73 -7 0 -11 41 -11 130 l0 130 -212 3 -213 2 218
3 217 2 0 -62z m-245 -77 c19 -7 20 -16 17 -112 -4 -121 -8 -141 -30 -137 -22
4 -35 62 -29 130 5 52 3 58 -24 84 -15 15 -26 31 -23 36 6 10 62 9 89 -1z
m113 -85 c2 -44 0 -57 -10 -54 -15 5 -30 65 -22 96 9 43 29 17 32 -42z m512
-170 l0 -134 -102 -40 c-200 -77 -194 -75 -229 -63 -44 15 -47 15 -52 -16 -2
-16 -5 32 -6 104 l-1 132 32 17 c42 22 329 133 346 133 9 1 12 -32 12 -133z
m-5 -944 c-2 -3 -28 5 -57 17 -29 12 -74 25 -100 28 l-48 6 0 191 c0 105 -3
215 -7 244 -7 59 -1 58 -103 18 l-55 -22 1 -64 c1 -44 -1 -57 -6 -40 -5 14 -8
46 -9 71 -1 46 0 47 46 69 50 24 271 108 313 120 l25 6 3 -319 c1 -176 0 -322
-3 -325z m-1680 410 l-75 -172 0 -111 c0 -118 -11 -159 -36 -138 -11 9 -14 44
-14 163 l0 151 -30 -45 c-17 -25 -37 -64 -46 -87 -20 -51 -30 -54 -48 -13 -12
30 -12 30 -71 -102 -32 -73 -71 -160 -87 -193 -27 -57 -28 -58 -28 -26 0 29
-2 32 -15 21 -12 -10 -15 -39 -15 -139 0 -69 -4 -132 -9 -140 -13 -20 -31 -4
-32 27 l0 27 -14 -30 c-8 -16 -49 -111 -91 -210 -42 -99 -92 -216 -111 -260
-55 -125 -53 -121 -33 -121 10 0 17 3 15 7 -3 3 7 11 21 18 30 13 45 14 24 1
-8 -5 -10 -10 -4 -10 5 0 19 7 30 16 10 8 12 12 4 8 -8 -4 -12 -4 -9 -1 3 4
30 19 61 35 l56 28 -20 -51 c-35 -90 -42 -100 -97 -129 -52 -28 -61 -29 -198
-31 -78 -2 -143 1 -143 6 0 5 18 48 39 96 128 286 337 766 511 1172 34 80 69
151 78 158 37 28 454 255 459 249 2 -1 -31 -80 -72 -174z m-590 89 c0 -34 -30
-51 -51 -29 -25 24 -10 60 24 56 21 -2 27 -8 27 -27z m905 -34 c0 -2 -19 -21
-42 -42 l-43 -40 40 43 c36 39 45 47 45 39z m-890 -132 c0 -2 -31 -23 -70 -45
l-70 -41 0 -141 0 -141 -51 -116 c-31 -69 -64 -126 -81 -142 -16 -14 -40 -41
-53 -59 l-25 -34 0 281 0 280 60 32 c69 37 271 131 283 131 4 0 7 -2 7 -5z
m1487 -67 c-3 -7 -5 -2 -5 12 0 14 2 19 5 13 2 -7 2 -19 0 -25z m773 -449 c0
-139 9 -136 -97 -32 -35 34 -63 69 -63 77 0 9 0 19 -1 24 0 6 127 49 154 51 4
1 7 -54 7 -120z m-1984 -76 c-15 -28 -16 -28 -13 -3 1 14 6 28 12 32 17 12 17
1 1 -29z m1924 -23 c12 -8 11 -10 -7 -10 -13 0 -23 5 -23 10 0 13 11 13 30 0z
m-1959 -57 c-12 -20 -14 -14 -5 12 4 9 9 14 11 11 3 -2 0 -13 -6 -23z m-20
-46 c-10 -9 -11 -8 -5 6 3 10 9 15 12 12 3 -3 0 -11 -7 -18z m-558 -44 c-5
-12 -3 -14 8 -8 11 7 12 6 3 -6 -6 -8 -14 -21 -17 -29 -3 -8 -5 -1 -4 15 1 30
5 45 12 45 3 0 1 -7 -2 -17z m519 -35 c-7 -7 -12 -8 -12 -2 0 6 3 14 7 17 3 4
9 5 12 2 2 -3 -1 -11 -7 -17z m-18 -33 c-4 -8 -8 -15 -10 -15 -2 0 -4 7 -4 15
0 8 4 15 10 15 5 0 7 -7 4 -15z m935 -15 c-75 -4 -146 -11 -157 -15 -12 -3
-27 -3 -34 2 -19 12 60 20 202 20 l125 0 -136 -7z m198 -6 c-3 -3 -12 -4 -19
-1 -8 3 -5 6 6 6 11 1 17 -2 13 -5z m-618 -48 c-4 -4 -154 -60 -214 -81 -20
-6 -20 -6 0 6 34 22 229 90 214 75z m128 -192 c8 -21 -13 -42 -28 -27 -13 13
-5 43 11 43 6 0 13 -7 17 -16z m403 -39 c18 -22 -2 -65 -30 -65 -28 0 -48 43
-30 65 7 8 20 15 30 15 10 0 23 -7 30 -15z m-210 -128 c23 -18 29 -30 29 -63
2 -105 -25 -133 -66 -70 -15 23 -31 36 -50 38 -22 2 -29 9 -34 33 -5 25 0 35
30 62 39 35 48 35 91 0z m-556 -84 c83 -53 229 -148 323 -210 95 -62 178 -113
184 -113 11 0 123 71 487 310 96 63 177 109 181 104 12 -13 65 -144 60 -148
-7 -6 -186 -132 -326 -229 -147 -101 -140 -90 -127 -204 l7 -51 86 55 c47 30
79 48 71 40 -22 -21 -344 -237 -354 -237 -5 0 -2 8 5 18 13 15 12 16 -3 3 -10
-7 -16 -17 -13 -21 8 -12 -23 -33 -36 -24 -7 4 -9 3 -5 -4 3 -6 -3 -16 -14
-22 -20 -11 -21 -9 -18 37 l3 48 45 6 c26 4 50 2 58 -4 9 -7 18 -5 30 8 16 18
16 18 -1 6 -9 -8 -20 -11 -24 -7 -10 9 2 17 28 19 30 2 129 63 129 80 0 7 -9
41 -21 74 l-20 61 -108 -77 c-59 -42 -106 -80 -104 -84 3 -5 -38 21 -91 58
l-96 67 -1 -44 -1 -43 -12 53 c-8 29 -15 54 -17 56 -2 1 -110 75 -239 164
-129 89 -246 170 -259 181 l-24 19 29 76 c16 42 31 76 33 76 2 0 72 -44 155
-97z m1076 -214 c0 -6 -4 -7 -10 -4 -5 3 -10 11 -10 16 0 6 5 7 10 4 6 -3 10
-11 10 -16z m-553 -411 c-3 -8 -6 -5 -6 6 -1 11 2 17 5 13 3 -3 4 -12 1 -19z
m33 2 c0 -5 -4 -10 -10 -10 -5 0 -10 5 -10 10 0 6 5 10 10 10 6 0 10 -4 10
-10z m-117 -63 c31 -22 57 -42 57 -44 0 -7 -113 69 -135 90 -16 16 14 -2 78
-46z"/>
<path d="M2732 3620 c0 -14 2 -19 5 -12 2 6 2 18 0 25 -3 6 -5 1 -5 -13z"/>
<path d="M2382 3570 c0 -19 2 -27 5 -17 2 9 2 25 0 35 -3 9 -5 1 -5 -18z"/>
<path d="M2383 3465 c0 -27 2 -38 4 -22 2 15 2 37 0 50 -2 12 -4 0 -4 -28z"/>
<path d="M1580 4071 c0 -5 9 -11 19 -14 14 -3 18 -1 14 9 -6 15 -33 19 -33 5z"/>
<path d="M2070 3995 c-8 -9 -8 -15 -2 -15 12 0 26 19 19 26 -2 2 -10 -2 -17
-11z"/>
<path d="M2109 2858 c0 -18 -2 -44 -5 -56 -3 -16 0 -22 8 -20 16 6 24 108 9
108 -6 0 -11 -15 -12 -32z"/>
<path d="M1994 2795 c-7 -19 -13 -45 -13 -57 1 -21 2 -21 6 -3 7 26 33 55 50
55 7 0 13 9 13 20 0 35 -39 25 -56 -15z"/>
<path d="M2560 1412 c0 -10 7 -27 15 -38 14 -19 14 -19 15 3 0 28 -10 53 -21
53 -5 0 -9 -8 -9 -18z"/>
<path d="M4034 2764 c-15 -36 -14 -51 4 -40 9 5 22 76 14 76 -1 0 -10 -16 -18
-36z"/>
<path d="M2511 2467 c-46 -141 -119 -249 -243 -353 -44 -38 -86 -72 -92 -76
-6 -4 -7 -11 -2 -15 5 -4 11 -2 13 5 3 6 9 10 14 6 5 -3 9 -1 9 5 0 9 31 24
55 26 6 0 9 5 8 10 -1 6 17 10 39 11 21 0 43 6 47 13 6 8 11 9 15 3 7 -12 46
-4 46 10 0 5 5 6 10 3 6 -4 17 -2 25 5 7 6 42 11 77 11 35 -1 74 -1 88 -1 48
0 55 13 36 67 -46 134 -106 319 -106 331 0 32 -17 5 -39 -61z"/>
<path d="M2814 2363 c44 -109 89 -191 103 -186 7 3 13 1 13 -5 0 -14 103 -50
139 -48 17 1 31 -1 31 -5 0 -4 11 -9 25 -11 21 -5 18 2 -27 51 -28 31 -67 77
-86 104 -18 26 -38 47 -43 47 -4 0 -45 25 -89 55 -44 30 -83 55 -85 55 -2 0 7
-26 19 -57z"/>
<path d="M2693 2256 c-1 -39 8 -46 84 -60 7 -1 16 -5 19 -9 4 -4 12 -7 17 -7
9 0 -103 109 -114 110 -3 0 -5 -15 -6 -34z"/>
<path d="M3780 1560 c0 -5 5 -10 11 -10 5 0 7 5 4 10 -3 6 -8 10 -11 10 -2 0
-4 -4 -4 -10z"/>
</g>
</svg>
